<mxfile host="app.diagrams.net" modified="2023-02-03T05:56:40.397Z" agent="5.0 (Windows NT 10.0; Win64; x64) AppleWebKit/537.36 (KHTML, like Gecko) Chrome/100.0.4896.75 Safari/537.36 Edg/100.0.1185.36" etag="V6rXBQwdKg7Pqbv-DoTl" version="20.8.16" type="github">
  <diagram name="Page-1" id="_DGr7UB2wQFng3u4ev_r">
    <mxGraphModel dx="1434" dy="788" grid="1" gridSize="10" guides="1" tooltips="1" connect="1" arrows="1" fold="1" page="1" pageScale="1" pageWidth="850" pageHeight="1100" math="0" shadow="0">
      <root>
        <mxCell id="0" />
        <mxCell id="1" parent="0" />
        <mxCell id="1HdEnbRGpdiD7oTF3C4I-1" value="start&lt;span style=&quot;white-space: pre;&quot;&gt;	&lt;/span&gt;" style="ellipse;whiteSpace=wrap;html=1;" vertex="1" parent="1">
          <mxGeometry x="340" y="30" width="120" height="80" as="geometry" />
        </mxCell>
        <mxCell id="1HdEnbRGpdiD7oTF3C4I-11" value="" style="edgeStyle=orthogonalEdgeStyle;rounded=0;orthogonalLoop=1;jettySize=auto;html=1;" edge="1" parent="1" source="1HdEnbRGpdiD7oTF3C4I-5" target="1HdEnbRGpdiD7oTF3C4I-8">
          <mxGeometry relative="1" as="geometry" />
        </mxCell>
        <mxCell id="1HdEnbRGpdiD7oTF3C4I-5" value="print Area&amp;nbsp;" style="shape=parallelogram;perimeter=parallelogramPerimeter;whiteSpace=wrap;html=1;fixedSize=1;" vertex="1" parent="1">
          <mxGeometry x="380" y="390" width="120" height="60" as="geometry" />
        </mxCell>
        <mxCell id="1HdEnbRGpdiD7oTF3C4I-12" value="" style="edgeStyle=orthogonalEdgeStyle;rounded=0;orthogonalLoop=1;jettySize=auto;html=1;" edge="1" parent="1" source="1HdEnbRGpdiD7oTF3C4I-7" target="1HdEnbRGpdiD7oTF3C4I-5">
          <mxGeometry relative="1" as="geometry" />
        </mxCell>
        <mxCell id="1HdEnbRGpdiD7oTF3C4I-7" value="Area=3.14*R*R" style="rounded=0;whiteSpace=wrap;html=1;" vertex="1" parent="1">
          <mxGeometry x="360" y="260" width="120" height="60" as="geometry" />
        </mxCell>
        <mxCell id="1HdEnbRGpdiD7oTF3C4I-8" value="end" style="ellipse;whiteSpace=wrap;html=1;" vertex="1" parent="1">
          <mxGeometry x="390" y="510" width="120" height="80" as="geometry" />
        </mxCell>
        <mxCell id="1HdEnbRGpdiD7oTF3C4I-13" value="" style="edgeStyle=orthogonalEdgeStyle;rounded=0;orthogonalLoop=1;jettySize=auto;html=1;" edge="1" parent="1" source="1HdEnbRGpdiD7oTF3C4I-10" target="1HdEnbRGpdiD7oTF3C4I-7">
          <mxGeometry relative="1" as="geometry" />
        </mxCell>
        <mxCell id="1HdEnbRGpdiD7oTF3C4I-14" value="" style="edgeStyle=orthogonalEdgeStyle;rounded=0;orthogonalLoop=1;jettySize=auto;html=1;" edge="1" parent="1" source="1HdEnbRGpdiD7oTF3C4I-10" target="1HdEnbRGpdiD7oTF3C4I-1">
          <mxGeometry relative="1" as="geometry" />
        </mxCell>
        <mxCell id="1HdEnbRGpdiD7oTF3C4I-10" value="Input Radius" style="shape=parallelogram;perimeter=parallelogramPerimeter;whiteSpace=wrap;html=1;fixedSize=1;" vertex="1" parent="1">
          <mxGeometry x="350" y="150" width="120" height="60" as="geometry" />
        </mxCell>
      </root>
    </mxGraphModel>
  </diagram>
</mxfile>
